<svg width="893" height="897" viewBox="0 0 893 897" fill="none" xmlns="http://www.w3.org/2000/svg">
<path d="M139.973 721.937C143.424 726.162 149.646 726.789 153.87 723.339C158.095 719.888 158.723 713.666 155.272 709.441L139.973 721.937ZM719.273 172.317C724.642 171.353 728.213 166.219 727.248 160.85L711.535 73.3595C710.571 67.9907 705.437 64.4201 700.068 65.3844C694.699 66.3486 691.128 71.4826 692.093 76.8514L706.06 154.62L628.291 168.588C622.922 169.552 619.352 174.686 620.316 180.055C621.28 185.424 626.414 188.994 631.783 188.03L719.273 172.317ZM155.272 709.441C2.61838 522.548 33.0882 312.166 155.114 186.321C277.027 60.5924 491.967 17.7518 711.888 170.704L723.167 154.487C495.906 -3.56986 270.083 39.3778 140.933 172.57C11.8971 305.644 -18.9945 527.313 139.973 721.937L155.272 709.441Z" fill="#3E322A"/>
<path d="M829.493 304.908C828.345 299.575 823.092 296.183 817.759 297.33C812.427 298.478 809.034 303.732 810.182 309.064L829.493 304.908ZM244.22 784.948C239.337 787.379 237.349 793.309 239.781 798.192L279.402 877.763C281.833 882.646 287.762 884.633 292.645 882.202C297.528 879.771 299.515 873.841 297.084 868.958L261.866 798.228L332.596 763.01C337.479 760.578 339.466 754.649 337.035 749.766C334.603 744.883 328.674 742.896 323.791 745.327L244.22 784.948ZM810.182 309.064C848.068 485.078 797.592 633.627 694.081 723.231C590.545 812.856 432.286 844.933 251.761 784.425L245.483 803.154C431.407 865.472 597.285 833.148 707.009 738.166C816.758 643.162 868.665 486.897 829.493 304.908L810.182 309.064Z" fill="#3E322A"/>
<path d="M421.937 299.62C380.037 284.026 366.471 287.129 361.416 315.591L451.357 443.357L536.414 306.492C518.069 333.446 501.531 337.1 469.008 323.997C456.322 316.733 445.793 311.306 421.937 299.62Z" fill="#B8A49C"/>
<path d="M536.414 306.492L451.357 443.357L361.416 315.591C366.471 287.129 380.037 284.026 421.937 299.62C445.793 311.306 456.322 316.733 469.008 323.997C501.531 337.1 518.069 333.446 536.414 306.492ZM536.414 306.492L543.819 294.577C541.292 298.965 538.837 302.932 536.414 306.492Z" stroke="#B8A49C" stroke-width="5.88397" stroke-linecap="round" stroke-linejoin="round"/>
<path d="M437.907 482.863V542.123V601.383C382.658 623.421 355.048 640.144 310.141 676.193H590.05C535.317 637.535 507.159 620.477 463.124 601.383V542.123V482.863L449.675 461.849L437.907 482.863Z" fill="#B8A49C" stroke="#B8A49C" stroke-width="5.88" stroke-linecap="round" stroke-linejoin="round"/>
<path d="M294.17 214.303H600.137L481.655 396.286L387.912 540.269L294.17 684.251H600.137L294.17 214.303Z" stroke="#3E322A" stroke-width="25.217" stroke-linecap="round" stroke-linejoin="round"/>
</svg>
